<svg width="48" height="48" viewBox="0 0 48 48" fill="none" xmlns="http://www.w3.org/2000/svg">
<path d="M36.7107 17.4822C36.7311 17.7664 36.731 18.0507 36.731 18.335C36.731 27.005 30.1321 36.9949 18.0711 36.9949C14.3553 36.9949 10.9036 35.9187 8 34.0508C8.52794 34.1117 9.0355 34.132 9.58376 34.132C12.6497 34.132 15.4721 33.0965 17.7259 31.33C14.8427 31.269 12.4264 29.3807 11.5939 26.7817C12 26.8426 12.4061 26.8832 12.8325 26.8832C13.4213 26.8832 14.0102 26.8019 14.5584 26.6599C11.5533 26.0507 9.29944 23.4111 9.29944 20.2233V20.1421C10.1725 20.6294 11.1878 20.934 12.2639 20.9745C10.4974 19.7969 9.34007 17.7867 9.34007 15.5126C9.34007 14.2943 9.66488 13.1776 10.2334 12.2029C13.4619 16.1827 18.3147 18.7816 23.7563 19.0659C23.6548 18.5786 23.5939 18.071 23.5939 17.5634C23.5939 13.9491 26.5178 11.005 30.1523 11.005C32.0406 11.005 33.7462 11.7969 34.9442 13.0761C36.4264 12.7918 37.8477 12.2436 39.1066 11.4923C38.6192 13.0152 37.5837 14.2944 36.2234 15.1065C37.5432 14.9645 38.8224 14.5989 40 14.0913C39.1067 15.3908 37.9899 16.5481 36.7107 17.4822Z" fill="#18A0FB"/>
</svg>
