<svg width="2795" height="2390" fill="none" xmlns="http://www.w3.org/2000/svg"><g clip-path="url(#a)"><path d="M1665.25 2401.17h-9.11l-1.14-11.24 1.28-.93s.11.03.32.08c2.09.47 4.1 1.21 5.99 2.2.41.22.76.52 1.06.88.17.21.26.49.24.77-.04.42.49 3.51 1.36 8.24Z" fill="#2F2E41"/><path opacity=".1" d="M1623.93 464.054c-179.17-5.7-349.85-58.807-512.79-116.89-162.952-58.083-324.4-122.517-499.298-153.221-112.498-19.802-241.122-22.503-331.771 32.755-87.199 53.257-115.399 145.219-130.549 230.556-11.399 64.183-18.099 131.742 13.125 191.85 21.7 41.706 60.2 76.786 86.824 116.741 92.674 139.069 27.175 310.545-73.249 446.305-47.099 63.61-101.724 124.47-138.073 192.26-36.35 67.78-53.125 145.49-21.35 214.65 31.525 68.56 106.624 120.02 187.998 156.27 165.248 73.56 359.996 94.61 549.994 106.54 420.219 26.48 842.719 14.95 1264.289 3.53 155.97-4.26 312.49-8.53 466.07-30.68 85.2-12.31 173.17-31.81 234.99-78.91 78.55-59.79 98-161.05 45.38-236.01-88.25-125.77-332.3-157.02-394-291.97-34.02-74.31.98-157.09 50.3-225.95 105.85-147.796 283.3-277.538 292.65-446.411 6.42-116.04-78.88-232.256-210.77-287.163-138.25-57.508-330-50.307-431.97 45.006-105.03 98.038-289.58 135.793-447.8 130.742Z" fill="#18A0FB"/><g clip-path="url(#b)"><path d="M431.511 901.343c130.621 0 236.51-105.961 236.51-236.672 0-130.71-105.889-236.671-236.51-236.671C300.889 428 195 533.961 195 664.671c0 130.711 105.889 236.672 236.511 236.672ZM2363.49 1431.72c130.62 0 236.51-105.97 236.51-236.68s-105.89-236.668-236.51-236.668-236.51 105.958-236.51 236.668 105.89 236.68 236.51 236.68Z" fill="#E6EAF0"/><path d="m1624.65 2189.84-41.58-17.52-28.52-208.59h-379.86l-30.92 207.73-37.2 18.62a8.835 8.835 0 0 0-4.64 9.94 8.836 8.836 0 0 0 3.11 4.9 8.85 8.85 0 0 0 5.48 1.9h510.71c2.04 0 4.01-.7 5.59-1.99 1.58-1.3 2.66-3.1 3.07-5.1.4-2 .1-4.08-.86-5.88a8.82 8.82 0 0 0-4.38-4.01Z" fill="#CED3D9"/><path d="M2299.68 1991.48H433.728a36.966 36.966 0 0 1-26.087-10.86 37.033 37.033 0 0 1-10.798-26.13v-263.31H2336.57v263.31c0 9.79-3.89 19.19-10.8 26.13a36.981 36.981 0 0 1-26.09 10.86Z" fill="#CED3D9"/><path d="M2338.52 1815.63H395.14V689.011a44.665 44.665 0 0 1 13.068-31.519 44.599 44.599 0 0 1 31.497-13.075H2293.95a44.606 44.606 0 0 1 31.5 13.075 44.712 44.712 0 0 1 13.07 31.519V1815.63Z" fill="#0B0C12"/><path d="M2222.45 1733.86H511.21a34.404 34.404 0 0 1-24.282-10.08 34.448 34.448 0 0 1-10.074-24.3V760.566a34.434 34.434 0 0 1 10.073-24.3 34.386 34.386 0 0 1 24.283-10.082h1711.24a34.375 34.375 0 0 1 24.28 10.082 34.431 34.431 0 0 1 10.07 24.3v938.914a34.449 34.449 0 0 1-10.07 24.3 34.394 34.394 0 0 1-24.28 10.08Z" fill="#fff"/><path d="M1846.75 2209H885.178a4.473 4.473 0 0 1-4.386-3.23 4.385 4.385 0 0 1-.057-1.98 4.29 4.29 0 0 1 .818-1.79c.407-.53.929-.96 1.527-1.26a4.403 4.403 0 0 1 1.922-.44h961.388a4.59 4.59 0 0 1 2.89.89c.84.62 1.44 1.51 1.71 2.51.15.64.14 1.3-.01 1.93-.14.64-.43 1.23-.84 1.74a4.3 4.3 0 0 1-1.51 1.2c-.59.28-1.23.43-1.88.43Z" fill="#CED3D9"/><path d="M2028.48 1566.71h-360.54c-.9.08-1.79-.2-2.48-.77-.7-.58-1.14-1.4-1.23-2.3v-291.02c.09-.89.53-1.72 1.23-2.29.69-.58 1.58-.86 2.48-.78h360.54c.9-.08 1.79.2 2.48.78.7.57 1.14 1.4 1.23 2.29v291.02c-.09.9-.53 1.72-1.23 2.3-.69.57-1.58.85-2.48.77Z" fill="#E6EAF0"/><path d="M1989.29 1301.75h-282.16c-.98 0-1.93.39-2.62 1.09-.7.69-1.09 1.64-1.09 2.62v218.78c0 .99.39 1.93 1.09 2.63.69.7 1.64 1.09 2.62 1.09h282.16c.99 0 1.93-.39 2.62-1.09.7-.7 1.09-1.64 1.09-2.63v-218.78c0-.98-.39-1.93-1.09-2.62-.69-.7-1.63-1.09-2.62-1.09Z" fill="#fff"/><path d="M1841.24 1450c19.81 0 35.87-16.08 35.87-35.9 0-19.83-16.06-35.9-35.87-35.9s-35.88 16.07-35.88 35.9c0 19.82 16.07 35.9 35.88 35.9Z" fill="#FFB8B8"/><path d="M1893.73 1527.96h-79.54l2.59-58.52.62-.65 8.93-9.44h28.4l10.53 10.21.85.82 22.42 21.5 5.2 36.08Z" fill="#18A0FB"/><path d="M1827.86 1527.96h-60.17c-.15-13.21-.23-21.12-.23-21.12l3.48-2.12.01-.01h.01l38.35-23.3 8.05-13.08.04.46 2.37 27.58s3.91 12.65 8.09 31.59ZM1929.01 1527.96h-63.75c.97-38.52-4.23-59.63-1.56-59.63l1.56 1.23 18.79 14.84 24.76 9.09h.02l17.07 6.27 2.99 1.09v1.42c.01 3.38.02 12.64.12 25.69Z" fill="#242833"/><path d="M1807.3 1425.33s3.05-5.36 2.34-23.25c-.71-17.9 26.52-7.78 49.27-9.48 22.76-1.71 17.94 29.87 17.94 29.87s1.64-1.87 5.16-17.12c3.51-15.24-4.47-30.43-4.47-30.43-2.35-16.02-15.01-10.88-15.01-10.88 1.6.4 2.99 1.39 3.9 2.77a6.616 6.616 0 0 1 1.02 4.68c-5.16-9.06-17.82-3.92-17.82-3.92-16.9-10.61-34.02 3.36-34.02 3.36-20.41 4.63-8.44 20.87-8.44 20.87-20.52 10.38.13 33.53.13 33.53Z" fill="#0B0C12"/><path d="M1775.72 1527.96H1751c.19-3.05.19-6.11.01-9.16-1.47-5.88 19.3-13.84 19.93-14.08l.01-.01h.01l3.96 2.13.8 21.12Z" fill="#242833"/><path d="M2027.31 1195.4h-360.54c-.9.08-1.79-.2-2.49-.78-.69-.57-1.13-1.4-1.23-2.29V901.205a3.49 3.49 0 0 1 1.23-2.296 3.46 3.46 0 0 1 2.49-.779h360.54c.89-.076 1.79.204 2.48.779a3.49 3.49 0 0 1 1.23 2.296v291.125c-.1.89-.54 1.72-1.23 2.29-.69.58-1.59.86-2.48.78Z" fill="#E6EAF0"/><path d="M1988.12 930.328h-282.16c-.99.002-1.93.394-2.63 1.09a3.744 3.744 0 0 0-1.09 2.626v218.786c0 .98.4 1.93 1.09 2.62.7.7 1.64 1.09 2.63 1.09h282.16c.98 0 1.92-.39 2.62-1.09.7-.69 1.09-1.64 1.09-2.62V934.044c0-.985-.39-1.929-1.09-2.626a3.727 3.727 0 0 0-2.62-1.09Z" fill="#fff"/><path d="M1916.49 1156.54c1.59-5.74 2.83-10.68 3.46-14.18.2-1.08.22-2.19.06-3.27-2.38-16.92-45.29-31.22-50.8-32.98l-1.33-14.73-54.02-5.82-6.84 18.84-19.39 7.27c-.7.26-1.37.6-1.98 1.02a9.603 9.603 0 0 0-3.59 4.51c-.7 1.83-.83 3.83-.37 5.74l8.26 33.6h126.54Z" fill="#18A0FB"/><path d="M1804.5 1156.54h-41.92c1.5-9.36 2.84-17.64 3.72-22.91 3.2-19.17 17.16-20.8 19.34-20.94.18-.01.29-.01.29-.01h8.82l9.75 43.86ZM1916.49 1156.54h10.16c-.49-6.33-2.8-12.39-6.64-17.45a20.756 20.756 0 0 0-7.27-6.05l-.77-.33-8.93 23.83h13.45Z" fill="#18A0FB"/><path d="M1838.76 1076.23c21.48 0 38.9-17.42 38.9-38.92s-17.42-38.924-38.9-38.924c-21.48 0-38.9 17.424-38.9 38.924s17.42 38.92 38.9 38.92Z" fill="#A0616A"/><path d="M1812.65 1018.35c4.03 4.77 10.84 6.11 17.13 6.66 14.7.81 29.44-.39 43.81-3.58.89 8.63-1.54 17.95 3.54 25.05a116.5 116.5 0 0 0 4.13-26.36c.38-3.83-.12-7.69-1.46-11.3a10.36 10.36 0 0 0-3.49-4.52 10.28 10.28 0 0 0-5.35-2c2.9-2.2 6.29-3.649 9.88-4.225l-12.35-6.211 3.18-3.259-22.36-1.369 6.47-4.117a140.391 140.391 0 0 0-29.43-.926 25.218 25.218 0 0 0-13.01 3.62c-3.69 2.643-5.83 7.893-3.54 11.771a17.07 17.07 0 0 0-7.84 3.476 17.075 17.075 0 0 0-5.17 6.86 27.494 27.494 0 0 0-.99 13.26c.84 7.12 2.49 14.12 4.93 20.86" fill="#0B0C12"/><path d="M701.464 1558.57V900.282a7.868 7.868 0 0 1 8.517-6.954h827.139a7.867 7.867 0 0 1 5.68 1.74 7.873 7.873 0 0 1 2.84 5.214v658.288a7.87 7.87 0 0 1-2.84 5.22 7.88 7.88 0 0 1-5.68 1.74H709.981a7.866 7.866 0 0 1-8.517-6.96Z" fill="#E6EAF0"/><path d="M791.37 975.721v501.929a8.536 8.536 0 0 0 8.518 8.52h647.332c2.25 0 4.42-.9 6.01-2.5 1.6-1.6 2.5-3.76 2.5-6.02V975.721c0-2.259-.9-4.425-2.5-6.023a8.514 8.514 0 0 0-6.01-2.5H799.888a8.531 8.531 0 0 0-8.518 8.523Z" fill="#fff"/><path d="M1059.86 1486.17h130.28l-8.12-121.94-47 10.85-45.71-17.59-1.21-.46-.08-.03c-.01.03-.02.07-.03.11-.72 2.9-15.07 60.38-28.13 129.06Z" fill="#18A0FB"/><path d="m981.347 1384.14 12.17 102.03h109.803l-14.01-128.68-.13-1.25-1.08.79-.11.08-27.09 19.77-79.553 7.26ZM1170.87 1486.17h98.33l1.42-80.33-72.36-24.01-16.24-17.6s-5.13 52.94-11.15 121.94Z" fill="#242833"/><path d="M934.009 1486.17h81.481l-5.22-73.09-28.922-28.94s-22.884 48.03-47.339 102.03ZM1246.01 1486.17H1289c-.19-23.41-.3-39.59-.3-44.15.21-7.06-1.33-14.06-4.48-20.37a42.716 42.716 0 0 0-13.6-15.81l-21.71 7.24-2.9 73.09Z" fill="#242833"/><path d="M1252.72 1325.86h-227.77v-96.07c0-32.92 23.18-72.5 51.67-88.23 39.99-22.08 83.7-22.47 119.94-1.06a114.607 114.607 0 0 1 41.04 41.68c9.84 17.22 15.05 36.7 15.12 56.53v87.15Z" fill="#0B0C12"/><path d="M1215.53 1280.65c21.8-39.89 7.14-89.91-32.72-111.72-39.87-21.81-89.86-7.15-111.65 32.75-21.8 39.89-7.15 89.91 32.72 111.72 39.87 21.81 89.86 7.15 111.65-32.75Z" fill="#FFB8B8"/><path d="M1221.54 1245.42h-117.37l-.27-1.34c-1.36-7-3.12-13.92-5.26-20.72-4.66 6.83-8.96 13.91-12.88 21.19l-.48.87h-22.81c-1.4-.01-2.79-.3-4.07-.87a9.893 9.893 0 0 1-3.37-2.43c-.62-.68-2.07-2.28 3.94-75.69a10.118 10.118 0 0 1 5.74-8.21c51.5-24.05 103.68-23.42 155.12 1.9h.92l.32 1.28c10.15 78.14 8.69 79.83 8.07 80.55-.95 1.08-2.11 1.96-3.42 2.56-1.31.6-2.74.91-4.18.91Z" fill="#0B0C12"/></g></g><defs><clipPath id="a"><path fill="#fff" d="M0 0h2795v2390H0z"/></clipPath><clipPath id="b"><path fill="#fff" transform="translate(195 428)" d="M0 0h2405v1781H0z"/></clipPath></defs></svg>