<svg width="164" height="28" viewBox="0 0 164 28" fill="none" xmlns="http://www.w3.org/2000/svg">
<path d="M49.5642 6.17553C48.5296 8.21808 48.0123 10.7872 48.0123 13.883C48.0123 18.3191 49.0954 21.6223 51.2616 23.7925C53.4278 25.9308 56.6772 27 61.0096 27C62.7231 27 64.469 26.8723 66.2473 26.617C68.0255 26.3936 69.6097 26.0904 71 25.7074L69.7876 19.484C68.947 19.6436 68.1387 19.7872 67.3627 19.9149C66.5868 20.0425 65.8108 20.1383 65.0348 20.2021C64.2912 20.2659 63.5314 20.2979 62.7555 20.2979C61.3975 20.2979 60.2175 20.0585 59.2152 19.5798C58.2452 19.0691 57.5016 18.3351 56.9843 17.3776C56.4993 16.3883 56.2568 15.1436 56.2568 13.6436C56.2568 12.0798 56.4832 10.8032 56.9358 9.81382C57.4208 8.79255 58.1321 8.04255 59.0697 7.56382C60.0396 7.05319 61.2197 6.79787 62.61 6.79787C63.3213 6.79787 64.0487 6.82978 64.7924 6.89361C65.536 6.95744 66.2958 7.03723 67.0717 7.13297C67.8477 7.22872 68.6236 7.35638 69.3996 7.51595L70.515 1.00532C69.7391 0.781914 68.8661 0.606382 67.8962 0.478723C66.9262 0.319148 65.9078 0.207447 64.8409 0.143618C63.8062 0.0478726 62.7716 0 61.737 0C58.7625 0 56.2568 0.526595 54.22 1.57979C52.1831 2.60106 50.6312 4.13298 49.5642 6.17553Z" fill="#0B0C12"/>
<path d="M22.4434 0.38391C22.9359 0.221855 23.4609 0.111101 24.0184 0.0516487L26.7599 7.54804C26.3096 7.46054 25.8594 7.39209 25.4091 7.34271C24.8257 7.24673 24.2909 7.19873 23.8047 7.19873C22.962 7.19873 22.1031 7.34271 21.2279 7.63066C20.3528 7.88662 19.4128 8.36653 18.4081 9.07041V26.5874H10.4833V0.479892H17.6788V3.50337C18.5863 2.67151 19.4128 1.99963 20.1583 1.48772C20.9038 0.975807 21.6655 0.60787 22.4434 0.38391Z" fill="#0B0C12"/>
<path d="M48.9088 5.8128C47.8148 7.95585 47.2677 10.6514 47.2677 13.8995C47.2677 14.5017 47.2869 15.084 47.3253 15.6465L43.3857 26.5874H34.3427L24.6468 0H33.0786L39.1073 19.8206L44.4067 0.431932L52.769 0.527915L52.2644 1.92949C50.8639 2.92939 49.7454 4.22382 48.9088 5.8128Z" fill="#0B0C12"/>
<path d="M0.975363 19.7295C0.325121 20.4036 0 21.4468 0 22.8592C0 24.2395 0.325121 25.2827 0.975363 25.9889C1.65812 26.663 2.77978 27 4.34037 27C5.93346 27 7.05513 26.663 7.70537 25.9889C8.38812 25.2827 8.7295 24.2395 8.7295 22.8592C8.7295 21.4468 8.38812 20.4036 7.70537 19.7295C7.05513 19.0233 5.93346 18.6702 4.34037 18.6702C2.77978 18.6702 1.65812 19.0233 0.975363 19.7295Z" fill="#0B0C12"/>
<path d="M75 17.1C75 23.364 78.996 27.324 84.612 27.324C89.508 27.324 92.712 24.588 93.72 20.664H90.192C89.472 23.148 87.528 24.552 84.612 24.552C81.012 24.552 78.348 21.996 78.348 17.1C78.348 12.276 81.012 9.71999 84.612 9.71999C87.528 9.71999 89.508 11.232 90.192 13.608H93.72C92.712 9.46799 89.508 6.94798 84.612 6.94798C78.996 6.94798 75 10.908 75 17.1Z" fill="#18A0FB"/>
<path d="M116.811 17.1C116.811 10.872 112.455 6.94798 106.839 6.94798C101.259 6.94798 96.8672 10.872 96.8672 17.1C96.8672 23.364 101.115 27.324 106.695 27.324C112.311 27.324 116.811 23.364 116.811 17.1ZM100.215 17.1C100.215 12.132 103.347 9.79199 106.803 9.79199C110.187 9.79199 113.463 12.132 113.463 17.1C113.463 22.104 110.115 24.444 106.695 24.444C103.275 24.444 100.215 22.104 100.215 17.1Z" fill="#18A0FB"/>
<path d="M119.895 17.064C119.895 23.184 123.963 27.324 129.255 27.324C132.855 27.324 135.411 25.488 136.599 23.292V27H139.911V0.359985H136.599V10.8C135.231 8.53199 132.387 6.94798 129.291 6.94798C123.963 6.94798 119.895 10.908 119.895 17.064ZM136.599 17.1C136.599 21.744 133.503 24.444 129.903 24.444C126.303 24.444 123.243 21.708 123.243 17.064C123.243 12.42 126.303 9.79199 129.903 9.79199C133.503 9.79199 136.599 12.528 136.599 17.1Z" fill="#18A0FB"/>
<path d="M153.835 9.71999C157.219 9.71999 160.099 11.844 160.063 15.696H147.607C147.967 11.844 150.631 9.71999 153.835 9.71999ZM163.051 20.916H159.523C158.803 23.04 156.931 24.552 153.979 24.552C150.631 24.552 147.823 22.356 147.571 18.36H163.339C163.411 17.676 163.447 17.1 163.447 16.38C163.447 10.98 159.703 6.94798 153.979 6.94798C148.219 6.94798 144.223 10.872 144.223 17.1C144.223 23.364 148.363 27.324 153.979 27.324C158.875 27.324 162.043 24.516 163.051 20.916Z" fill="#18A0FB"/>
</svg>
