<svg width="1776" height="1629" fill="none" xmlns="http://www.w3.org/2000/svg"><g clip-path="url(#a)"><path d="M1601.31 846.084c.23 191.426-73.75 375.486-206.41 513.486a670.32 670.32 0 0 1-24.64 24.52 736.096 736.096 0 0 1-39.82 35.23 739.008 739.008 0 0 1-454.323 168.49c-5.534.13-11.088.19-16.663.19-132.448 0-299.036-70.75-450.213-168.68a1546.565 1546.565 0 0 1-37.189-24.88c-5.743-3.92-11.457-7.9-17.143-11.94a1524.215 1524.215 0 0 1-165.628-135.32 1072.635 1072.635 0 0 1-95.53-102.15c-116.16-143.29-141.781-272.405 23.825-298.946a1792.868 1792.868 0 0 0 57.089-10.045c26.727-5.137 52.306-10.684 76.737-16.643 32.908-7.997 63.826-16.67 92.753-26.019a1159.72 1159.72 0 0 0 28.523-9.584C509.949 735.576 601.825 672.7 664.364 604.479c10.607-11.548 20.386-23.235 29.337-35.061a492.902 492.902 0 0 0 37.231-56.632 532.373 532.373 0 0 0 38.442-85.721l.563-1.628c49.76-143.543 34.621-276.687 89.517-321.249C1094.11-86.318 1386.26 184.98 1523.38 504.914c6.91 16.12 13.42 32.339 19.51 48.655a958.9 958.9 0 0 1 7.91 21.905 1003.766 1003.766 0 0 1 18.19 57.342c2.08 7.308 4.08 14.61 5.97 21.905 2.02 7.872 3.97 15.724 5.76 23.576 13.34 57.488 20.59 114.183 20.59 167.787Z" fill="#E8F6FF"/><path d="M876.117 1587.81c-5.534.13-11.088.19-16.663.19-132.448 0-299.036-70.75-450.213-168.68a1546.565 1546.565 0 0 1-37.189-24.88l10.774-65.56 326.181-43.31 163.706 125.18 3.404 177.06Z" fill="#0B0C12"/><path d="M891.819 416.979h-46.481a5.432 5.432 0 0 0-5.429 5.43v46.504a5.425 5.425 0 0 0 1.593 3.83 5.411 5.411 0 0 0 3.836 1.578h46.481a5.425 5.425 0 0 0 5.429-5.408v-46.504a5.446 5.446 0 0 0-5.429-5.43ZM891.819 496.227h-46.481a5.432 5.432 0 0 0-5.429 5.429v46.504a5.426 5.426 0 0 0 1.593 3.83 5.38 5.38 0 0 0 1.761 1.171 5.39 5.39 0 0 0 2.075.407h46.481a5.425 5.425 0 0 0 5.429-5.408v-46.504a5.443 5.443 0 0 0-5.429-5.429ZM891.819 575.474h-46.481a5.428 5.428 0 0 0-5.429 5.429v46.484a5.434 5.434 0 0 0 .41 2.079 5.407 5.407 0 0 0 2.94 2.939 5.413 5.413 0 0 0 2.079.411h46.481a5.434 5.434 0 0 0 5.429-5.429v-46.484a5.44 5.44 0 0 0-1.595-3.834 5.441 5.441 0 0 0-3.834-1.595ZM897.164 659.19a5.46 5.46 0 0 0-5.345-4.469h-46.481a5.428 5.428 0 0 0-5.429 5.429v46.484a5.43 5.43 0 0 0 1.587 3.842 5.413 5.413 0 0 0 3.842 1.587h46.481a5.434 5.434 0 0 0 5.429-5.429V660.15a4.828 4.828 0 0 0-.084-.96ZM893.928 734.386a5.487 5.487 0 0 0-2.109-.418h-46.481a5.43 5.43 0 0 0-3.842 1.587 5.428 5.428 0 0 0-1.586 3.842v46.484a5.4 5.4 0 0 0 3.347 5.022 5.4 5.4 0 0 0 2.081.407h46.481a5.434 5.434 0 0 0 5.429-5.429v-46.484a5.455 5.455 0 0 0-3.32-5.011ZM989.458 416.979h-46.48a5.432 5.432 0 0 0-5.429 5.43v46.504a5.425 5.425 0 0 0 1.593 3.83 5.418 5.418 0 0 0 3.836 1.578h46.48a5.425 5.425 0 0 0 5.43-5.408v-46.504a5.45 5.45 0 0 0-1.595-3.835 5.45 5.45 0 0 0-3.835-1.595Z" fill="#474D59"/><path d="M989.458 496.227h-46.48a5.431 5.431 0 0 0-5.429 5.429v46.504a5.426 5.426 0 0 0 1.593 3.83 5.398 5.398 0 0 0 3.836 1.578h46.48a5.425 5.425 0 0 0 5.43-5.408v-46.504a5.445 5.445 0 0 0-5.43-5.429ZM989.458 575.474h-46.48a5.428 5.428 0 0 0-5.429 5.429v46.484a5.416 5.416 0 0 0 5.429 5.429h46.48a5.434 5.434 0 0 0 5.43-5.429v-46.484a5.448 5.448 0 0 0-5.43-5.429ZM989.458 654.721h-46.48a5.415 5.415 0 0 0-5.137 3.717 5.172 5.172 0 0 0-.292 1.712v46.483a5.417 5.417 0 0 0 5.429 5.43h46.48a5.434 5.434 0 0 0 5.43-5.43V660.15a5.448 5.448 0 0 0-5.43-5.429Z" fill="#18A0FB"/><path d="M989.458 733.968h-46.48a5.436 5.436 0 0 0-2.08.41 5.432 5.432 0 0 0-2.939 2.94 5.412 5.412 0 0 0-.41 2.079v46.484a5.412 5.412 0 0 0 1.587 3.842 5.416 5.416 0 0 0 3.842 1.587h46.48a5.43 5.43 0 0 0 5.43-5.429v-46.484a5.434 5.434 0 0 0-5.43-5.429Z" fill="#474D59"/><path d="M1087.1 416.979h-46.48a5.44 5.44 0 0 0-3.84 1.591 5.42 5.42 0 0 0-1.59 3.839v46.504c0 .711.14 1.416.41 2.073a5.6 5.6 0 0 0 1.18 1.757 5.41 5.41 0 0 0 3.84 1.578h46.48a5.434 5.434 0 0 0 5.43-5.408v-46.504a5.463 5.463 0 0 0-1.6-3.835 5.442 5.442 0 0 0-3.83-1.595ZM1087.1 496.227h-46.48a5.432 5.432 0 0 0-5.43 5.429v46.504c0 .712.14 1.417.41 2.074.28.657.68 1.254 1.18 1.756.5.503 1.1.901 1.76 1.171.66.271 1.36.41 2.08.407h46.48a5.434 5.434 0 0 0 5.43-5.408v-46.504a5.465 5.465 0 0 0-1.6-3.835 5.437 5.437 0 0 0-3.83-1.594Z" fill="#18A0FB"/><path d="M1087.1 575.474h-46.48c-1.44 0-2.82.573-3.84 1.591a5.419 5.419 0 0 0-1.59 3.838v46.484a5.443 5.443 0 0 0 1.58 3.842 5.5 5.5 0 0 0 1.77 1.176c.66.273 1.36.412 2.08.411h46.48a5.44 5.44 0 0 0 3.84-1.591 5.463 5.463 0 0 0 1.59-3.838v-46.484a5.461 5.461 0 0 0-1.6-3.834 5.434 5.434 0 0 0-3.83-1.595Z" fill="#474D59"/><path d="M1087.1 654.721h-46.48c-1.44 0-2.82.573-3.84 1.591a5.42 5.42 0 0 0-1.59 3.838v46.484a5.443 5.443 0 0 0 1.58 3.842 5.5 5.5 0 0 0 1.77 1.176c.66.273 1.36.412 2.08.411h46.48a5.44 5.44 0 0 0 3.84-1.591 5.463 5.463 0 0 0 1.59-3.838V660.15a5.463 5.463 0 0 0-1.6-3.834 5.434 5.434 0 0 0-3.83-1.595ZM1087.1 733.968h-46.48a5.414 5.414 0 0 0-2.08.41 5.52 5.52 0 0 0-1.77 1.177 5.443 5.443 0 0 0-1.58 3.842v46.484a5.433 5.433 0 0 0 1.58 3.842c.51.505 1.11.904 1.77 1.177.66.272 1.36.412 2.08.41h46.48c1.44 0 2.82-.573 3.84-1.591a5.463 5.463 0 0 0 1.59-3.838v-46.484c0-1.439-.58-2.82-1.59-3.838a5.44 5.44 0 0 0-3.84-1.591ZM1184.74 416.979h-46.48a5.44 5.44 0 0 0-3.84 1.591 5.42 5.42 0 0 0-1.59 3.839v46.504c0 .711.14 1.416.41 2.073a5.28 5.28 0 0 0 1.18 1.757 5.41 5.41 0 0 0 3.84 1.578h46.48a5.434 5.434 0 0 0 5.43-5.408v-46.504a5.463 5.463 0 0 0-1.6-3.835 5.46 5.46 0 0 0-3.83-1.595Z" fill="#18A0FB"/><path d="M1184.74 496.227h-46.48c-1.44 0-2.83.572-3.84 1.591a5.419 5.419 0 0 0-1.59 3.838v46.504c0 .712.14 1.417.41 2.074.27.657.67 1.254 1.18 1.756.5.503 1.1.901 1.76 1.171.66.271 1.36.41 2.08.407h46.48a5.434 5.434 0 0 0 5.43-5.408v-46.504a5.454 5.454 0 0 0-5.43-5.429ZM1184.74 575.474h-46.48c-1.44 0-2.83.573-3.84 1.591a5.419 5.419 0 0 0-1.59 3.838v46.484c-.01.713.13 1.42.41 2.079.27.659.67 1.258 1.17 1.763a5.5 5.5 0 0 0 1.77 1.176c.66.273 1.36.412 2.08.411h46.48a5.4 5.4 0 0 0 3.83-1.591 5.472 5.472 0 0 0 1.6-3.838v-46.484a5.451 5.451 0 0 0-5.43-5.429ZM1184.74 654.721h-46.48c-1.44 0-2.83.573-3.84 1.591a5.419 5.419 0 0 0-1.59 3.838v46.484c-.01.713.13 1.42.41 2.079.27.659.67 1.258 1.17 1.763a5.52 5.52 0 0 0 1.77 1.177c.66.272 1.36.411 2.08.41h46.48a5.4 5.4 0 0 0 3.83-1.591 5.472 5.472 0 0 0 1.6-3.838V660.15a5.451 5.451 0 0 0-5.43-5.429Z" fill="#474D59"/><path d="M1184.74 733.968h-46.48a5.414 5.414 0 0 0-2.08.41 5.52 5.52 0 0 0-1.77 1.177c-.5.505-.9 1.104-1.17 1.763a5.13 5.13 0 0 0-.41 2.079v46.484c-.01.713.13 1.42.41 2.079.27.659.67 1.259 1.17 1.763.51.505 1.11.904 1.77 1.177.66.272 1.36.412 2.08.41h46.48c1.44 0 2.82-.573 3.83-1.591a5.472 5.472 0 0 0 1.6-3.838v-46.484a5.472 5.472 0 0 0-1.6-3.838 5.4 5.4 0 0 0-3.83-1.591Z" fill="#18A0FB"/><path d="M1282.38 416.979h-46.51a5.42 5.42 0 0 0-3.82 1.597 5.361 5.361 0 0 0-1.58 3.833v46.504a5.4 5.4 0 0 0 5.4 5.408h46.51a5.434 5.434 0 0 0 3.83-1.582 5.39 5.39 0 0 0 1.59-3.826v-46.504c0-1.439-.57-2.818-1.59-3.835a5.46 5.46 0 0 0-3.83-1.595ZM1282.38 496.227h-46.51a5.416 5.416 0 0 0-3.82 1.597 5.357 5.357 0 0 0-1.58 3.832v46.504a5.4 5.4 0 0 0 5.4 5.408h46.51a5.434 5.434 0 0 0 3.83-1.582 5.387 5.387 0 0 0 1.59-3.826v-46.504c0-1.439-.57-2.817-1.59-3.835a5.454 5.454 0 0 0-3.83-1.594ZM1282.38 575.474h-46.51a5.416 5.416 0 0 0-3.82 1.597 5.359 5.359 0 0 0-1.58 3.832v46.484c-.01.711.13 1.417.4 2.075.27.658.67 1.256 1.17 1.761.51.504 1.1.904 1.76 1.177.66.274 1.36.415 2.07.416h46.51a5.417 5.417 0 0 0 3.83-1.591 5.42 5.42 0 0 0 1.59-3.838v-46.484a5.41 5.41 0 0 0-1.59-3.834 5.451 5.451 0 0 0-3.83-1.595Z" fill="#474D59"/><path d="M1282.38 654.721h-46.51a5.416 5.416 0 0 0-3.82 1.597 5.36 5.36 0 0 0-1.58 3.832v46.484c-.01.711.13 1.417.4 2.075.27.658.67 1.256 1.17 1.761a5.425 5.425 0 0 0 3.83 1.593h46.51a5.4 5.4 0 0 0 3.83-1.591 5.42 5.42 0 0 0 1.59-3.838V660.15c0-1.438-.57-2.817-1.59-3.834a5.451 5.451 0 0 0-3.83-1.595Z" fill="#18A0FB"/><path d="M1282.38 733.968h-46.51a5.425 5.425 0 0 0-3.83 1.593c-.5.504-.9 1.103-1.17 1.761a5.277 5.277 0 0 0-.4 2.075v46.484c-.01.712.13 1.417.4 2.075.27.658.67 1.257 1.17 1.761a5.425 5.425 0 0 0 3.83 1.593h46.51c1.44 0 2.82-.573 3.83-1.591a5.42 5.42 0 0 0 1.59-3.838v-46.484a5.42 5.42 0 0 0-1.59-3.838 5.4 5.4 0 0 0-3.83-1.591ZM1380.01 416.979h-46.5a5.42 5.42 0 0 0-3.82 1.597 5.412 5.412 0 0 0-1.59 3.833v46.504c0 1.434.57 2.81 1.59 3.824a5.4 5.4 0 0 0 3.82 1.584h46.5a5.44 5.44 0 0 0 3.84-1.582 5.433 5.433 0 0 0 1.59-3.826v-46.504c0-1.439-.57-2.818-1.59-3.835a5.465 5.465 0 0 0-3.84-1.595ZM1380.01 496.227h-46.5a5.416 5.416 0 0 0-3.82 1.597 5.408 5.408 0 0 0-1.59 3.832v46.504c0 1.434.57 2.81 1.59 3.824a5.4 5.4 0 0 0 3.82 1.584h46.5a5.44 5.44 0 0 0 3.84-1.582 5.431 5.431 0 0 0 1.59-3.826v-46.504c0-1.439-.57-2.817-1.59-3.835a5.46 5.46 0 0 0-3.84-1.594Z" fill="#474D59"/><path d="M1380.01 575.474h-46.5a5.416 5.416 0 0 0-3.82 1.597 5.41 5.41 0 0 0-1.59 3.832v46.484a5.446 5.446 0 0 0 1.58 3.836c.51.504 1.1.904 1.76 1.177.66.274 1.36.415 2.07.416h46.5a5.44 5.44 0 0 0 3.84-1.591 5.42 5.42 0 0 0 1.59-3.838v-46.484a5.41 5.41 0 0 0-1.59-3.834 5.457 5.457 0 0 0-3.84-1.595Z" fill="#18A0FB"/><path d="M1380.01 654.721h-46.5a5.416 5.416 0 0 0-3.82 1.597 5.412 5.412 0 0 0-1.59 3.832v46.484a5.446 5.446 0 0 0 1.58 3.836 5.425 5.425 0 0 0 3.83 1.593h46.5a5.44 5.44 0 0 0 3.84-1.591 5.42 5.42 0 0 0 1.59-3.838V660.15c0-1.438-.57-2.817-1.59-3.834a5.457 5.457 0 0 0-3.84-1.595ZM1380.01 733.968h-46.5a5.425 5.425 0 0 0-3.83 1.593 5.435 5.435 0 0 0-1.58 3.836v46.484a5.435 5.435 0 0 0 1.58 3.836 5.425 5.425 0 0 0 3.83 1.593h46.5a5.44 5.44 0 0 0 3.84-1.591 5.42 5.42 0 0 0 1.59-3.838v-46.484a5.42 5.42 0 0 0-1.59-3.838 5.44 5.44 0 0 0-3.84-1.591Z" fill="#474D59"/><path d="M1477.65 416.979h-46.5a5.42 5.42 0 0 0-3.82 1.597 5.412 5.412 0 0 0-1.59 3.833v46.504c0 1.434.57 2.81 1.59 3.824a5.4 5.4 0 0 0 3.82 1.584h46.5a5.44 5.44 0 0 0 3.84-1.582 5.433 5.433 0 0 0 1.59-3.826v-46.504c0-1.439-.57-2.818-1.59-3.835a5.465 5.465 0 0 0-3.84-1.595ZM1477.65 496.227h-46.5a5.416 5.416 0 0 0-3.82 1.597 5.408 5.408 0 0 0-1.59 3.832v46.504c0 1.434.57 2.81 1.59 3.824a5.4 5.4 0 0 0 3.82 1.584h46.5a5.44 5.44 0 0 0 3.84-1.582 5.431 5.431 0 0 0 1.59-3.826v-46.504c0-1.439-.57-2.817-1.59-3.835a5.46 5.46 0 0 0-3.84-1.594Z" fill="#18A0FB"/><path d="M1477.65 575.474h-46.5a5.416 5.416 0 0 0-3.82 1.597 5.41 5.41 0 0 0-1.59 3.832v46.484a5.446 5.446 0 0 0 1.58 3.836c.5.504 1.1.904 1.76 1.177.66.274 1.36.415 2.07.416h46.5a5.44 5.44 0 0 0 3.84-1.591 5.42 5.42 0 0 0 1.59-3.838v-46.484a5.41 5.41 0 0 0-1.59-3.834 5.457 5.457 0 0 0-3.84-1.595ZM1477.65 654.721h-46.5a5.416 5.416 0 0 0-3.82 1.597 5.412 5.412 0 0 0-1.59 3.832v46.484a5.446 5.446 0 0 0 1.58 3.836 5.425 5.425 0 0 0 3.83 1.593h46.5a5.44 5.44 0 0 0 3.84-1.591 5.42 5.42 0 0 0 1.59-3.838V660.15c0-1.438-.57-2.817-1.59-3.834a5.457 5.457 0 0 0-3.84-1.595Z" fill="#474D59"/><path d="M1477.65 733.968h-46.5a5.425 5.425 0 0 0-3.83 1.593 5.435 5.435 0 0 0-1.58 3.836v46.484a5.435 5.435 0 0 0 1.58 3.836 5.425 5.425 0 0 0 3.83 1.593h46.5a5.44 5.44 0 0 0 3.84-1.591 5.42 5.42 0 0 0 1.59-3.838v-46.484a5.42 5.42 0 0 0-1.59-3.838 5.44 5.44 0 0 0-3.84-1.591ZM1575.29 416.979h-46.5c-1.44.005-2.81.58-3.82 1.597a5.412 5.412 0 0 0-1.59 3.833v46.504c0 1.434.57 2.81 1.59 3.824a5.4 5.4 0 0 0 3.82 1.584h46.5a5.44 5.44 0 0 0 3.84-1.582 5.433 5.433 0 0 0 1.59-3.826v-46.504c0-1.439-.58-2.818-1.59-3.835a5.465 5.465 0 0 0-3.84-1.595ZM1575.29 496.227h-46.5a5.44 5.44 0 0 0-3.83 1.597 5.44 5.44 0 0 0-1.58 3.832v46.504c0 1.434.57 2.81 1.59 3.824a5.4 5.4 0 0 0 3.82 1.584h46.5a5.44 5.44 0 0 0 3.84-1.582 5.431 5.431 0 0 0 1.59-3.826v-46.504c0-1.439-.58-2.817-1.59-3.835a5.46 5.46 0 0 0-3.84-1.594Z" fill="#18A0FB"/><path d="M1575.29 575.474h-46.5a5.44 5.44 0 0 0-3.83 1.597 5.442 5.442 0 0 0-1.58 3.832v46.484a5.446 5.446 0 0 0 1.58 3.836c.5.504 1.1.904 1.76 1.177a5.37 5.37 0 0 0 2.07.416h46.5a5.44 5.44 0 0 0 3.84-1.591 5.42 5.42 0 0 0 1.59-3.838v-46.484c0-1.439-.58-2.817-1.59-3.834a5.457 5.457 0 0 0-3.84-1.595Z" fill="#474D59"/><path d="M1575.29 654.721h-46.5a5.399 5.399 0 0 0-3.82 1.597 5.412 5.412 0 0 0-1.59 3.832v46.484a5.446 5.446 0 0 0 1.58 3.836c.5.504 1.1.904 1.76 1.178.65.273 1.36.414 2.07.415h46.5a5.44 5.44 0 0 0 3.84-1.591 5.42 5.42 0 0 0 1.59-3.838V660.15c0-1.438-.58-2.817-1.59-3.834a5.457 5.457 0 0 0-3.84-1.595ZM1575.29 733.968h-46.5c-.71.001-1.42.142-2.07.415a5.39 5.39 0 0 0-2.93 2.939 5.471 5.471 0 0 0-.41 2.075v46.484a5.435 5.435 0 0 0 1.58 3.836c.5.504 1.1.905 1.76 1.178.65.273 1.36.414 2.07.415h46.5a5.44 5.44 0 0 0 3.84-1.591 5.42 5.42 0 0 0 1.59-3.838v-46.484a5.42 5.42 0 0 0-1.59-3.838 5.44 5.44 0 0 0-3.84-1.591Z" fill="#18A0FB"/><path d="M1672.93 416.979h-46.5c-1.44.005-2.81.58-3.83 1.597a5.445 5.445 0 0 0-1.58 3.833v46.504c0 1.434.57 2.81 1.59 3.824a5.4 5.4 0 0 0 3.82 1.584h46.5a5.4 5.4 0 0 0 3.83-1.582 5.4 5.4 0 0 0 1.6-3.826v-46.504c0-1.439-.58-2.818-1.59-3.835a5.465 5.465 0 0 0-3.84-1.595Z" fill="#474D59"/><path d="M1672.93 496.227h-46.5a5.44 5.44 0 0 0-3.83 1.597 5.44 5.44 0 0 0-1.58 3.832v46.504c0 1.434.57 2.81 1.59 3.824a5.4 5.4 0 0 0 3.82 1.584h46.5a5.4 5.4 0 0 0 3.83-1.582 5.399 5.399 0 0 0 1.6-3.826v-46.504c0-1.439-.58-2.817-1.59-3.835a5.46 5.46 0 0 0-3.84-1.594ZM1672.93 575.474h-46.5a5.44 5.44 0 0 0-3.83 1.597 5.442 5.442 0 0 0-1.58 3.832v46.484a5.446 5.446 0 0 0 1.58 3.836c.5.504 1.1.904 1.76 1.177a5.37 5.37 0 0 0 2.07.416h46.5a5.44 5.44 0 0 0 3.84-1.591 5.42 5.42 0 0 0 1.59-3.838v-46.484c0-1.439-.58-2.817-1.59-3.834a5.457 5.457 0 0 0-3.84-1.595ZM1672.93 654.721h-46.5a5.44 5.44 0 0 0-3.83 1.597 5.444 5.444 0 0 0-1.58 3.832v46.484a5.446 5.446 0 0 0 1.58 3.836c.5.504 1.1.904 1.76 1.178.65.273 1.36.414 2.07.415h46.5a5.44 5.44 0 0 0 3.84-1.591 5.42 5.42 0 0 0 1.59-3.838V660.15c0-1.438-.58-2.817-1.59-3.834a5.457 5.457 0 0 0-3.84-1.595Z" fill="#18A0FB"/><path d="M1672.93 733.968h-46.5c-.71.001-1.42.142-2.07.415a5.39 5.39 0 0 0-2.93 2.939 5.471 5.471 0 0 0-.41 2.075v46.484a5.435 5.435 0 0 0 1.58 3.836c.5.504 1.1.905 1.76 1.178.65.273 1.36.414 2.07.415h46.5a5.44 5.44 0 0 0 3.84-1.591 5.42 5.42 0 0 0 1.59-3.838v-46.484a5.42 5.42 0 0 0-1.59-3.838 5.44 5.44 0 0 0-3.84-1.591ZM1770.57 416.979h-46.5c-1.44.005-2.81.58-3.83 1.597a5.445 5.445 0 0 0-1.58 3.833v46.504c0 1.434.57 2.81 1.59 3.824a5.382 5.382 0 0 0 3.82 1.584h46.5a5.4 5.4 0 0 0 3.83-1.582 5.442 5.442 0 0 0 1.6-3.826v-46.504c0-1.439-.58-2.818-1.59-3.835a5.465 5.465 0 0 0-3.84-1.595ZM1770.57 496.227h-46.5a5.44 5.44 0 0 0-3.83 1.597 5.44 5.44 0 0 0-1.58 3.832v46.504c0 1.434.57 2.81 1.59 3.824a5.382 5.382 0 0 0 3.82 1.584h46.5a5.4 5.4 0 0 0 3.83-1.582 5.44 5.44 0 0 0 1.6-3.826v-46.504c0-1.439-.58-2.817-1.59-3.835a5.46 5.46 0 0 0-3.84-1.594Z" fill="#474D59"/><path d="M1770.57 575.474h-46.5a5.44 5.44 0 0 0-3.83 1.597 5.442 5.442 0 0 0-1.58 3.832v46.484a5.446 5.446 0 0 0 1.58 3.836c.5.504 1.1.904 1.76 1.177a5.37 5.37 0 0 0 2.07.416h46.5a5.44 5.44 0 0 0 3.84-1.591 5.42 5.42 0 0 0 1.59-3.838v-46.484c0-1.439-.58-2.817-1.59-3.834a5.457 5.457 0 0 0-3.84-1.595Z" fill="#18A0FB"/><path d="M1770.57 654.721h-46.5a5.44 5.44 0 0 0-3.83 1.597 5.444 5.444 0 0 0-1.58 3.832v46.484a5.446 5.446 0 0 0 1.58 3.836c.5.504 1.1.904 1.76 1.178.65.273 1.36.414 2.07.415h46.5a5.44 5.44 0 0 0 3.84-1.591 5.42 5.42 0 0 0 1.59-3.838V660.15c0-1.438-.58-2.817-1.59-3.834a5.457 5.457 0 0 0-3.84-1.595ZM1770.57 733.968h-46.5c-.71.001-1.42.142-2.07.415a5.39 5.39 0 0 0-2.93 2.939 5.471 5.471 0 0 0-.41 2.075v46.484a5.435 5.435 0 0 0 1.58 3.836c.5.504 1.1.905 1.76 1.178.65.273 1.36.414 2.07.415h46.5a5.44 5.44 0 0 0 3.84-1.591 5.42 5.42 0 0 0 1.59-3.838v-46.484a5.42 5.42 0 0 0-1.59-3.838 5.44 5.44 0 0 0-3.84-1.591Z" fill="#474D59"/><path d="M701.797 1419.32h-1.295l1.107-.15.188.15Z" fill="#0B0C12"/><path d="M590.542 552.723c78.79 0 142.662-63.875 142.662-142.67 0-78.794-63.872-142.669-142.662-142.669S447.88 331.259 447.88 410.053c0 78.795 63.872 142.67 142.662 142.67Z" fill="#FFB6B6"/><path d="M715.476 305.45s37.313-71.335-44.777-77.82c0 0-69.982-63.486-141.313-11.606 0 0-38.908 0-60.184 44.031 0 0-30.601-11.606-37.326 19.455 0 0-22.391 64.85 0 123.215 22.392 58.365 29.829 64.85 29.829 64.85s-36.794-122.365 52.766-128.85c89.56-6.485 189.78-62.457 197.243 8.878 7.464 71.334 18.696 88.911 18.696 88.911s70.89-101.881-14.934-131.064Z" fill="#0B0C12"/><path d="m959.578 761.658-.46 2.422-5.157 27.23-35.644 188.356-2.109 11.088-4.427 23.446-6.055 32-13.427 70.89-3.841 20.32-1.441 7.62-.501 2.67-3.989 21.03-1.211 6.35-9.73 72.1-8.499 62.84 28.44 28.44-16.955 16.96-11.13 63.75.021.15H409.241a1593.703 1593.703 0 0 1-54.332-36.82l3.738-27.98s12.862-49.97 7.454-55.94c-5.387-5.98-17.206-16.65-17.206-16.65l14.888-34.75 2.067-4.82-3.466-71.9-.083-1.73-1.149-23.7-.146-3.05-.23-4.57-4.405-91.21-.084-1.51-1.336-27.65-1.253-26.286-.543-11.088-5.366-110.946-3.634-75.343-3.174-65.59 12.759-4.322 136.457-46.38 56.524-73.483 117.643.877 57.59.438 96.093 89.125 21.863 10.441.167.083 15.681 7.497 39.757 18.981 42.034 20.089 21.57 10.295.459.23Z" fill="#C0C5CC"/><path d="M561.924 1205.28a63.258 63.258 0 0 1-27.094 4.13 63.318 63.318 0 0 1-26.296-7.73 63.185 63.185 0 0 1-20.559-18.12 63.262 63.262 0 0 1-10.961-25.12l-222.505-31.57 77.349-87.5 199.436 43.39a63.593 63.593 0 0 1 64.403 92.52 63.614 63.614 0 0 1-33.773 30Z" fill="#FFB6B6"/><path d="M462.717 1046.2a28.206 28.206 0 0 0-16.475-10.17l-91.291-18.99-9.376-1.94a39.468 39.468 0 0 1-15.104-6.67 39.647 39.647 0 0 1-11.06-12.268 40.004 40.004 0 0 1-5.116-16.496 39.452 39.452 0 0 1 1.859-15.62l31.634-95.326 20.526-61.853a87.227 87.227 0 0 0 4.364-23.074 90.522 90.522 0 0 0-18.939-60.328 89.142 89.142 0 0 0-102.337-28.484c-.522.189-1.065.397-1.587.606a88.931 88.931 0 0 0-52.85 59.326l-22.3 81.126-46.001 167.241a120.637 120.637 0 0 0 53.522 134.97 120.572 120.572 0 0 0 48.711 16.8l131.487 15.41 60.847 7.15c7.036.84 14.132-.99 19.875-5.15a28.16 28.16 0 0 0 11.112-17.26c.099-.38.175-.76.23-1.15l1.462-9.02 12.382-75.97.125-.77c.645-3.88.471-7.85-.51-11.65a28.094 28.094 0 0 0-5.19-10.44Z" fill="#C0C5CC"/><path d="M703.65 1207.71a63.34 63.34 0 0 0 27.405.27 63.204 63.204 0 0 0 24.944-11.36 63.154 63.154 0 0 0 17.798-20.84 63.226 63.226 0 0 0 7.31-26.41l215.829-62.63-88.914-75.72-191.324 71.08a63.587 63.587 0 0 0-41.989 16.67 63.571 63.571 0 0 0-20.325 40.34 63.57 63.57 0 0 0 11.599 43.66 63.547 63.547 0 0 0 37.667 24.94Z" fill="#FFB6B6"/><path d="m1104.09 946.63-102.65-236.258a89.39 89.39 0 0 0-42.322-44.584 90.519 90.519 0 0 0-18.333-6.682c-.981-.25-1.963-.48-2.944-.668a87.964 87.964 0 0 0-40.676.752 89.4 89.4 0 0 0-57.089 45.376 2.223 2.223 0 0 0-.167.292 90.01 90.01 0 0 0-.772 81.127l1.274 2.548 72.54 145.693a39.478 39.478 0 0 1 1.293 32.259 39.477 39.477 0 0 1-23.218 22.431l-5.095 1.838-91.626 33.096a28.206 28.206 0 0 0-15.774 14.02 28.175 28.175 0 0 0-1.619 21.04l.229.73 25.684 82.2c.125.37.25.75.396 1.12.226.71.505 1.4.836 2.07a28.143 28.143 0 0 0 33.012 15.72l49.446-13.05 10.086-2.67 127.689-33.72a120.638 120.638 0 0 0 77.72-64.01 120.61 120.61 0 0 0 12.05-50.108 120.545 120.545 0 0 0-9.97-50.562Z" fill="#C0C5CC"/><path d="M93.751 1145.03c29.589 36.09 61.5 70.22 95.53 102.16h943.749a34.332 34.332 0 0 1 34.29 34.3l1.36 239.17a742.253 742.253 0 0 0 161.76-101.34c13.7-11.26 26.97-23 39.82-35.23 8.42-7.98 16.63-16.15 24.64-24.52a742.468 742.468 0 0 0 143.7-214.54H93.751Z" fill="#242833"/><path d="M1394.9 1359.57a670.32 670.32 0 0 1-24.64 24.52h-200.89v-24.52h225.53Z" fill="#474D59"/><path d="M957.699 575.474a11.571 11.571 0 0 0-10.17-6.056H262.97a11.594 11.594 0 0 0-8.178 3.405 11.593 11.593 0 0 0-3.39 8.185v409.746h707.716V581.008a11.252 11.252 0 0 0-1.419-5.534Z" fill="#242833"/><path d="M250.782 979.661v50.559c0 2.1.413 4.18 1.215 6.11a15.965 15.965 0 0 0 8.638 8.64c1.937.8 4.012 1.22 6.108 1.22h261.213v99.78h-3.47c-.272 0-.542.06-.793.16-.252.11-.48.26-.673.45a2.056 2.056 0 0 0-.607 1.47v6.94a2.056 2.056 0 0 0 .607 1.46c.193.2.421.35.673.45.251.11.521.16.793.16h162.158c.272 0 .542-.05.794-.16.251-.1.48-.25.672-.45a2.043 2.043 0 0 0 .607-1.46v-6.94a2.059 2.059 0 0 0-.607-1.47 2.214 2.214 0 0 0-.672-.45c-.252-.1-.522-.16-.794-.16h-3.47v-99.78h261.213a16.004 16.004 0 0 0 11.286-4.68 15.91 15.91 0 0 0 3.46-5.18 15.934 15.934 0 0 0 1.215-6.11v-50.559H250.782Z" fill="#242833"/><path d="M596.991 834.537c36.103 0 65.371-29.269 65.371-65.374s-29.268-65.374-65.371-65.374c-36.103 0-65.37 29.269-65.37 65.374s29.267 65.374 65.37 65.374ZM763.548 402.258h-10.441c0-78.934-78.115-130.659-156.919-130.701a172.015 172.015 0 0 0-34.141 3.321c-12.654 2.526-25.788 5.554-38.692 9.501-50.887 15.599-98.078 45.752-98.078 117.879a164.172 164.172 0 0 0 5.304 41.513l-10.106 2.631a175.15 175.15 0 0 1-5.638-44.144c0-63.022 25.871-106.311 70.556-132.121 23.492-13.573 52.161-22.323 85.007-26.582a202.718 202.718 0 0 1 41.239-1.253c90.623 6.515 151.909 76.01 151.909 159.956Z" fill="#18A0FB"/><path d="m780.942 408.042-4.114-30.404a32.808 32.808 0 0 0-10.441-19.964 33.023 33.023 0 0 0-27.667-8.352l-6.535.898a13.61 13.61 0 0 0-9.084 5.283 13.67 13.67 0 0 0-2.693 10.169l9.501 70.038a13.728 13.728 0 0 0 11.066 11.632c.839.168 1.693.252 2.548.25.615 0 1.229-.042 1.838-.125l7.308-.981a32.986 32.986 0 0 0 22.426-13.428 37.401 37.401 0 0 0 1.608-2.443 34.982 34.982 0 0 0 4.239-22.573Z" fill="#18A0FB"/><path d="M727.967 351.494a13.424 13.424 0 0 0-4.866 4.009 13.67 13.67 0 0 0-2.693 10.17l9.501 70.038a13.736 13.736 0 0 0 11.066 11.631l-13.008-95.848Z" fill="#18A0FB"/><path d="m780.942 408.042-4.114-30.404a32.807 32.807 0 0 0-10.44-19.963l9.459 69.683c.142 1.118.429 2.214.856 3.257a34.974 34.974 0 0 0 4.239-22.573ZM748.431 429.949c2.857-.388 4.293-7.187 3.208-15.187-1.086-8-4.281-14.17-7.138-13.783-2.857.388-4.293 7.187-3.208 15.187 1.085 7.999 4.281 14.17 7.138 13.783ZM742.167 392.361c2.856-.388 4.293-7.187 3.207-15.187-1.085-7.999-4.28-14.17-7.137-13.783-2.857.388-4.293 7.187-3.208 15.187 1.085 8 4.281 14.171 7.138 13.783Z" fill="#242833"/><path d="M781.84 406.978c2.857-.387 4.293-7.186 3.208-15.186s-4.281-14.171-7.138-13.783c-2.857.387-4.293 7.187-3.208 15.186 1.085 8 4.281 14.171 7.138 13.783Z" fill="#242833"/><path d="m462.884 474.718-16.079-66.843a12.577 12.577 0 0 0-10.19-9.501 13.898 13.898 0 0 0-2.088-.167c-.985.003-1.966.122-2.923.355l-6.223 1.503a31.122 31.122 0 0 0-22.948 37.504l7.204 29.987a33.093 33.093 0 0 0 11.151 18 29.486 29.486 0 0 0 2.839 2.026 30.947 30.947 0 0 0 11.482 4.324c4.078.659 8.247.496 12.26-.482l6.202-1.504a12.182 12.182 0 0 0 4.531-2.109 12.515 12.515 0 0 0 4.782-13.093Z" fill="#18A0FB"/><path d="M429.177 462.281c2.803-.674 3.544-7.584 1.656-15.433-1.889-7.849-5.692-13.665-8.495-12.99-2.803.674-3.545 7.584-1.656 15.433s5.692 13.665 8.495 12.99ZM408.296 468.546c2.803-.675 3.544-7.584 1.656-15.433-1.889-7.849-5.692-13.665-8.495-12.991-2.803.675-3.545 7.585-1.656 15.433 1.889 7.849 5.692 13.665 8.495 12.991Z" fill="#242833"/><path d="m463.907 474.468-16.078-66.844a13.646 13.646 0 0 0-11.046-10.274l21.946 91.296a13.599 13.599 0 0 0 5.178-14.178Z" fill="#18A0FB"/><path d="M406.067 424.33a13.532 13.532 0 0 0-2.443-5.116 30.747 30.747 0 0 0-1.191 18.355l7.204 29.987a33.093 33.093 0 0 0 11.151 18l-14.721-61.226Z" fill="#242833"/></g><defs><clipPath id="a"><path fill="#fff" transform="translate(0 41)" d="M0 0h1776v1547H0z"/></clipPath></defs></svg>